<svg xmlns="http://www.w3.org/2000/svg" width="17.997" height="17.995" viewBox="0 0 17.997 17.995"><defs><style>.a{fill:#362d73;}</style></defs><path class="a" d="M10.422,12.3a6.674,6.674,0,0,0-1.4-.748,3.578,3.578,0,0,0,1.164-2.36,5.291,5.291,0,0,1,6.709-.549.7.7,0,1,0,.8-1.153,6.682,6.682,0,0,0-1.4-.748,3.585,3.585,0,1,0-4.827-.008q-.147.057-.292.12a6.676,6.676,0,0,0-1.238.711,3.584,3.584,0,1,0-5.751,3.973A6.76,6.76,0,0,0,.1,15.74,2.109,2.109,0,0,0,2.112,18.5H8.228a.7.7,0,0,0,0-1.406H2.112a.7.7,0,0,1-.669-.919A5.424,5.424,0,0,1,6.6,12.5a5.258,5.258,0,0,1,3.022.948.7.7,0,1,0,.8-1.153ZM13.886,1.906a2.179,2.179,0,1,1-2.179,2.179A2.182,2.182,0,0,1,13.886,1.906ZM6.611,6.716A2.179,2.179,0,1,1,4.432,8.9,2.182,2.182,0,0,1,6.611,6.716ZM18,15.156a.7.7,0,0,1-.7.7H15.363v1.933a.7.7,0,1,1-1.406,0V15.859H12.024a.7.7,0,0,1,0-1.406h1.933V12.52a.7.7,0,0,1,1.406,0v1.933H17.3A.7.7,0,0,1,18,15.156Zm0,0" transform="translate(-0.001 -0.5)"/></svg>