<svg xmlns="http://www.w3.org/2000/svg" width="19.049" height="23.785" viewBox="0 0 19.049 23.785"><defs><style>.a{fill:#03658c;stroke:#03658c;}</style></defs><path class="a" d="M71.091,18.133a3.54,3.54,0,0,1-1.076-1.465,16.951,16.951,0,0,1-1.122-6.7c0-.009,0-.017,0-.026a6.465,6.465,0,0,0-3.806-5.863V2.538A2.539,2.539,0,0,0,62.554,0h-.21A2.539,2.539,0,0,0,59.81,2.538V4.08A6.465,6.465,0,0,0,56,9.97a16.951,16.951,0,0,1-1.122,6.7,3.54,3.54,0,0,1-1.076,1.465.649.649,0,0,0-.356.738.679.679,0,0,0,.669.522h4.893a3.437,3.437,0,0,0,6.873,0h4.893a.679.679,0,0,0,.669-.522A.649.649,0,0,0,71.091,18.133ZM61.145,2.538a1.2,1.2,0,0,1,1.2-1.2h.21a1.2,1.2,0,0,1,1.2,1.2V3.647a6.465,6.465,0,0,0-2.608,0V2.538Zm1.3,18.91a2.106,2.106,0,0,1-2.1-2.055h4.2A2.106,2.106,0,0,1,62.449,21.448Zm2.688-3.393h-9.5a7,7,0,0,0,.35-.614A16.9,16.9,0,0,0,57.339,9.97a5.11,5.11,0,1,1,10.22,0c0,.008,0,.016,0,.025a16.867,16.867,0,0,0,1.348,7.445,7,7,0,0,0,.35.614Z" transform="translate(-52.924 0.5)"/></svg>