<svg width="20" height="18" viewBox="0 0 20 18" fill="none" xmlns="http://www.w3.org/2000/svg">
<path d="M7.49984 16.5C7.96007 16.5 8.33317 16.1642 8.33317 15.75C8.33317 15.3358 7.96007 15 7.49984 15C7.0396 15 6.6665 15.3358 6.6665 15.75C6.6665 16.1642 7.0396 16.5 7.49984 16.5Z" stroke="#FF5C00" stroke-width="1.5" stroke-linecap="round" stroke-linejoin="round"/>
<path d="M16.6668 16.5C17.1271 16.5 17.5002 16.1642 17.5002 15.75C17.5002 15.3358 17.1271 15 16.6668 15C16.2066 15 15.8335 15.3358 15.8335 15.75C15.8335 16.1642 16.2066 16.5 16.6668 16.5Z" stroke="#FF5C00" stroke-width="1.5" stroke-linecap="round" stroke-linejoin="round"/>
<path d="M0.833496 0.75H4.16683L6.40016 10.7925C6.47637 11.1378 6.68509 11.448 6.98978 11.6687C7.29448 11.8895 7.67574 12.0067 8.06683 12H16.1668C16.5579 12.0067 16.9392 11.8895 17.2439 11.6687C17.5486 11.448 17.7573 11.1378 17.8335 10.7925L19.1668 4.5H5.00016" stroke="#FF5C00" stroke-width="1.5" stroke-linecap="round" stroke-linejoin="round"/>
</svg>
