<svg width="20" height="20" viewBox="0 0 20 20" fill="none" xmlns="http://www.w3.org/2000/svg">
<path d="M13.3335 3.33331H15.0002C15.4422 3.33331 15.8661 3.50891 16.1787 3.82147C16.4912 4.13403 16.6668 4.55795 16.6668 4.99998V16.6666C16.6668 17.1087 16.4912 17.5326 16.1787 17.8452C15.8661 18.1577 15.4422 18.3333 15.0002 18.3333H5.00016C4.55814 18.3333 4.13421 18.1577 3.82165 17.8452C3.50909 17.5326 3.3335 17.1087 3.3335 16.6666V4.99998C3.3335 4.55795 3.50909 4.13403 3.82165 3.82147C4.13421 3.50891 4.55814 3.33331 5.00016 3.33331H6.66683" stroke="#939AA5" stroke-width="1.5" stroke-linecap="round" stroke-linejoin="round"/>
<path d="M12.4998 1.66669H7.49984C7.0396 1.66669 6.6665 2.03978 6.6665 2.50002V4.16669C6.6665 4.62692 7.0396 5.00002 7.49984 5.00002H12.4998C12.9601 5.00002 13.3332 4.62692 13.3332 4.16669V2.50002C13.3332 2.03978 12.9601 1.66669 12.4998 1.66669Z" stroke="#939AA5" stroke-width="1.5" stroke-linecap="round" stroke-linejoin="round"/>
</svg>
