<svg xmlns="http://www.w3.org/2000/svg" width="23" height="23" viewBox="0 0 23 23"><defs><style>.a{fill:#362d73;}</style></defs><path class="a" d="M22.8,8.373,19.209,4.779a.674.674,0,0,0-.476-.2h-6.6V2.021A2.024,2.024,0,0,0,10.107,0H2.021A2.024,2.024,0,0,0,0,2.021V17.385a2.024,2.024,0,0,0,2.021,2.021H9.434v2.021A1.574,1.574,0,0,0,11.006,23H21.428A1.574,1.574,0,0,0,23,21.428V8.85A.674.674,0,0,0,22.8,8.373Zm-3.4-1.491L20.7,8.176H19.631a.225.225,0,0,1-.225-.225ZM9.434,18.059H2.021a.675.675,0,0,1-.674-.674v-.674H9.434Zm0-11.9v9.209H1.348V2.021a.675.675,0,0,1,.674-.674h8.086a.675.675,0,0,1,.674.674V4.6A1.574,1.574,0,0,0,9.434,6.154ZM21.652,21.428a.225.225,0,0,1-.225.225H11.006a.225.225,0,0,1-.225-.225V6.154a.225.225,0,0,1,.225-.225h7.053V7.951a1.574,1.574,0,0,0,1.572,1.572h2.021Z"/><path class="a" d="M277.5,412h-6.828a.674.674,0,0,0,0,1.348H277.5a.674.674,0,1,0,0-1.348Z" transform="translate(-257.871 -393.492)"/><path class="a" d="M277.5,352h-6.828a.674.674,0,0,0,0,1.348H277.5a.674.674,0,1,0,0-1.348Z" transform="translate(-257.871 -336.188)"/><path class="a" d="M270.674,292a.674.674,0,0,0,0,1.348H277.5a.674.674,0,1,0,0-1.348Z" transform="translate(-257.871 -278.883)"/><path class="a" d="M270.674,233.348h3.234a.674.674,0,1,0,0-1.348h-3.234a.674.674,0,1,0,0,1.348Z" transform="translate(-257.871 -221.578)"/><path class="a" d="M270.674,173.348h3.234a.674.674,0,1,0,0-1.348h-3.234a.674.674,0,1,0,0,1.348Z" transform="translate(-257.871 -164.273)"/><path class="a" d="M102.471,60h-1.8a.674.674,0,0,0,0,1.348h1.8a.674.674,0,0,0,0-1.348Z" transform="translate(-95.508 -57.305)"/></svg>