<svg xmlns="http://www.w3.org/2000/svg" width="21.319" height="18.361" viewBox="0 0 21.319 18.361"><defs><style>.a{fill:none;stroke:#362d73;stroke-width:1.3px;}</style></defs><path class="a" d="M82.227,132.783l-2.2-1.547a.572.572,0,0,0,.027-.21c0-.535,0-1.072,0-1.607s0-1.072,0-1.607c0-.3-.089-.391-.384-.391-.7,0-1.406,0-2.108,0-.29,0-.379.1-.382.4l0,1.417-4.35-3.063c-.322-.226-.347-.229-.663-.007l-5.561,3.916q-1.93,1.358-3.868,2.722c-.261.183-.306.318-.16.53q.631.919,1.273,1.826a1.271,1.271,0,0,0,.258.2c.119-.069.217-.119.306-.181l.466-.329a.723.723,0,0,0-.027.206q.007,3.775,0,7.552c0,.4.089.489.48.489h4.752c.4,0,.473-.073.473-.485V135.89h3.861v6.757c0,.368.082.453.439.453H79.64c.354,0,.446-.094.446-.448q0-3.833,0-7.664a.812.812,0,0,0-.016-.155l.507.359c.3.21.414.187.619-.107l1.145-1.646C82.573,133.113,82.552,133.012,82.227,132.783Z" transform="translate(-61.826 -125.388)"/></svg>