<svg xmlns="http://www.w3.org/2000/svg" width="24.3" height="24.3" viewBox="0 0 24.3 24.3"><defs><style>.a{fill:#362d73;stroke:#362d73;stroke-width:0.3px;}</style></defs><g transform="translate(0.15 0.15)"><path class="a" d="M11.25,20h-9A2.253,2.253,0,0,1,0,17.75V9.25A2.253,2.253,0,0,1,2.25,7h11.5A2.253,2.253,0,0,1,16,9.25v3a.75.75,0,0,1-1.5,0v-3a.752.752,0,0,0-.75-.75H2.25a.752.752,0,0,0-.75.75v8.5a.752.752,0,0,0,.75.75h9a.75.75,0,0,1,0,1.5Z"/><path class="a" d="M12.25,8.5a.75.75,0,0,1-.75-.75V5a3.5,3.5,0,0,0-7,0V7.75a.75.75,0,0,1-1.5,0V5A5,5,0,0,1,13,5V7.75A.75.75,0,0,1,12.25,8.5Z"/><path class="a" d="M23.25,18h-2a.75.75,0,0,1,0-1.5H22.5V15.25a.75.75,0,0,1,1.5,0v2A.75.75,0,0,1,23.25,18Z"/><path class="a" d="M14.75,23.5a.75.75,0,0,1-.75-.75v-2a.75.75,0,0,1,.75-.75h2a.75.75,0,0,1,0,1.5H15.5v1.25A.75.75,0,0,1,14.75,23.5Z"/><path class="a" d="M14.94,18.5a.783.783,0,0,1-.218-.032.752.752,0,0,1-.5-.936,4.992,4.992,0,0,1,9.181-.884.751.751,0,0,1-1.327.7,3.49,3.49,0,0,0-6.418.617A.75.75,0,0,1,14.94,18.5Z"/><path class="a" d="M19,24a4.973,4.973,0,0,1-4.4-2.648.751.751,0,0,1,1.327-.7,3.49,3.49,0,0,0,6.42-.622.749.749,0,0,1,1.431.445A4.98,4.98,0,0,1,19,24Z"/></g></svg>