<svg xmlns="http://www.w3.org/2000/svg" width="16.43" height="21.309" viewBox="0 0 16.43 21.309"><defs><style>.a{fill:#362d73;stroke:#362d73;stroke-width:0.7px;}</style></defs><g transform="translate(-0.15 0.443)"><path class="a" d="M10.907,5.723a1.02,1.02,0,0,0,.132-.258,1,1,0,0,1,.393.157,1.5,1.5,0,0,0,.8.257,1.559,1.559,0,0,0,.27-.025,1.436,1.436,0,0,0,.93-.586.783.783,0,0,1,1.139-.2A1.436,1.436,0,0,0,15.65,5.3l-.119-.674a.782.782,0,0,1-.613-.151,1.455,1.455,0,0,0-2,.353.783.783,0,0,1-.525.352.678.678,0,0,1-.3-.007,1.36,1.36,0,0,0,.547-.29,1.436,1.436,0,0,0,.513-.973.781.781,0,0,1,.279-.567.77.77,0,0,1,.607-.176,1.406,1.406,0,0,0,1.047-.336l-.441-.524a.817.817,0,0,1-.607.176,1.456,1.456,0,0,0-1.56,1.309.782.782,0,0,1-.885.743,1.52,1.52,0,0,0-.629.084,1.026,1.026,0,0,0-.4-.388l1.529-3.054a.342.342,0,0,0-.308-.495.882.882,0,0,1-.64-.267,1.576,1.576,0,0,0-2.137,0,.9.9,0,0,1-.641.267A.9.9,0,0,1,7.725.416a1.579,1.579,0,0,0-2.138,0,.885.885,0,0,1-.642.267.342.342,0,0,0-.306.495L6.166,4.232a1.015,1.015,0,0,0-.344,1.491A7.187,7.187,0,0,0,.5,12.651v6.155a1.712,1.712,0,0,0,1.71,1.71H14.52a1.712,1.712,0,0,0,1.71-1.71V12.651A7.187,7.187,0,0,0,10.907,5.723ZM6.014.95A.9.9,0,0,1,7.3.95a1.578,1.578,0,0,0,2.137,0,.9.9,0,0,1,1.282,0,1.817,1.817,0,0,0,.555.335L9.863,4.1h-3L5.458,1.286A1.827,1.827,0,0,0,6.014.95Zm.641,4.52a.342.342,0,1,1,0-.684h3.42a.342.342,0,0,1,0,.684Zm8.891,13.336a1.026,1.026,0,0,1-1.026,1.026H2.21a1.026,1.026,0,0,1-1.026-1.026V12.651a6.5,6.5,0,0,1,6.5-6.5H9.049a6.5,6.5,0,0,1,6.5,6.5Zm0,0" transform="translate(0 0)"/><path class="a" d="M130.84,262.439l4.1-4.1.484.484-4.1,4.1Zm0,0" transform="translate(-124.769 -247.295)"/><path class="a" d="M193.526,320a1.026,1.026,0,1,0,1.026,1.026A1.026,1.026,0,0,0,193.526,320Zm0,1.368a.342.342,0,1,1,.342-.342A.342.342,0,0,1,193.526,321.364Zm0,0" transform="translate(-183.793 -306.319)"/><path class="a" d="M129.526,258.048a1.026,1.026,0,1,0-1.026-1.026A1.026,1.026,0,0,0,129.526,258.048Zm0-1.368a.342.342,0,1,1-.342.342A.342.342,0,0,1,129.526,256.68Zm0,0" transform="translate(-122.529 -245.055)"/><path class="a" d="M77.287,200a4.787,4.787,0,1,0,4.787,4.787A4.787,4.787,0,0,0,77.287,200Zm0,8.891a4.1,4.1,0,1,1,4.1-4.1A4.1,4.1,0,0,1,77.287,208.887Zm0,0" transform="translate(-68.922 -191.448)"/></g></svg>