<svg width="234" height="54" viewBox="0 0 234 54" fill="none" xmlns="http://www.w3.org/2000/svg">
<g clip-path="url(#clip0)">
<path d="M26.8699 53.9979C41.7098 53.9979 53.7398 41.91 53.7398 26.9989C53.7398 12.0878 41.7098 0 26.8699 0C12.0301 0 0 12.0878 0 26.9989C0 41.91 12.0301 53.9979 26.8699 53.9979Z" fill="url(#paint0_linear)"/>
<path d="M7.4729 15.3906L22.4228 9.15894L27.9775 23.6604L35.0982 39.8568L29.6813 49.1286L20.7105 47.4188L7.4729 15.3906Z" fill="black"/>
<path d="M24.5444 5.28296L40.6592 6.35746L38.4992 44.0118L30.0122 49.4355L22.2466 43.0226L24.5444 5.28296Z" fill="white"/>
<path d="M30.3199 46.5617C31.0652 46.5617 31.6693 45.9689 31.6693 45.2378C31.6693 44.5066 31.0652 43.9138 30.3199 43.9138C29.5746 43.9138 28.9705 44.5066 28.9705 45.2378C28.9705 45.9689 29.5746 46.5617 30.3199 46.5617Z" fill="black"/>
<path d="M71.4354 42.27C69.8498 39.001 68.2231 35.2488 66.5554 31.0133C64.8146 26.5445 63.2984 21.9907 62.0127 17.3689H68.1297C68.4777 18.766 68.8822 20.2655 69.3434 21.8673C69.8045 23.4691 70.296 25.0716 70.818 26.6748C71.3399 28.2752 71.8789 29.8301 72.4348 31.3395C72.9907 32.8489 73.5062 34.2049 73.9815 35.4073C74.4554 34.202 74.9625 32.8461 75.5028 31.3395C76.0432 29.833 76.5736 28.2781 77.0941 26.6748C77.6175 25.0716 78.1175 23.4691 78.5942 21.8673C79.0709 20.2655 79.4825 18.766 79.8291 17.3689H85.753C84.468 21.9906 82.9525 26.5445 81.2125 31.0133C79.5448 35.2502 77.9181 39.0024 76.3324 42.27H71.4354Z" fill="white"/>
<path d="M98.2097 16.7593C100.104 16.7593 101.699 16.9967 102.994 17.4714C104.172 17.8759 105.233 18.5623 106.088 19.4712C106.884 20.3645 107.456 21.4371 107.753 22.5987C108.098 23.9106 108.265 25.2629 108.252 26.6196V41.7074C107.367 41.8992 106.033 42.1295 104.25 42.3981C102.25 42.6835 100.23 42.8189 98.2097 42.8032C96.8401 42.8163 95.4734 42.6733 94.1359 42.3768C93.0037 42.1358 91.9318 41.6665 90.9851 40.9974C90.1112 40.3561 89.411 39.5052 88.9482 38.5222C88.4574 37.5074 88.2127 36.2538 88.2141 34.7615C88.2141 33.3402 88.4899 32.1321 89.0416 31.1372C89.5856 30.1637 90.3585 29.3387 91.2928 28.7345C92.2997 28.091 93.416 27.6393 94.5858 27.402C95.8697 27.1276 97.1792 26.9918 98.4919 26.9969C99.157 26.9992 99.8215 27.0391 100.482 27.1163C101.232 27.2049 101.976 27.3395 102.71 27.5193V26.5642C102.713 25.9219 102.633 25.2819 102.472 24.6603C102.323 24.0525 102.027 23.4911 101.61 23.0261C101.193 22.5612 100.667 22.2071 100.081 21.9954C99.2979 21.719 98.4708 21.5897 97.6411 21.6138C96.4195 21.6058 95.1994 21.7013 93.9938 21.8995C93.076 22.0422 92.1723 22.2648 91.2928 22.5646L90.582 17.9085C91.6237 17.5797 92.6872 17.3254 93.7646 17.1474C95.2319 16.8858 96.7195 16.7559 98.2097 16.7593ZM98.685 38.2259C100.453 38.2259 101.797 38.1307 102.716 37.9402V31.5529C102.264 31.4296 101.805 31.3342 101.341 31.2672C100.683 31.1683 100.017 31.1205 99.3512 31.1244C98.7121 31.1263 98.074 31.1741 97.4416 31.2672C96.8349 31.351 96.2445 31.5278 95.6912 31.7917C95.1863 32.0304 94.7525 32.398 94.433 32.8577C94.1017 33.3743 93.9372 33.9811 93.962 34.5952C93.962 35.9596 94.3863 36.9041 95.235 37.4285C96.0837 37.953 97.2337 38.2188 98.685 38.2259Z" fill="white"/>
<path d="M121.466 38.1299C122.983 38.1299 124.089 37.9473 124.785 37.582C125.481 37.2167 125.828 36.5906 125.826 35.7037C125.826 34.8765 125.455 34.1943 124.713 33.6571C123.97 33.1198 122.746 32.5321 121.04 31.894C120.064 31.5421 119.108 31.1371 118.175 30.6809C117.36 30.2899 116.603 29.7877 115.924 29.1885C115.29 28.6105 114.784 27.9053 114.439 27.1184C114.049 26.1734 113.863 25.1561 113.894 24.1337C113.894 21.8511 114.731 20.0503 116.406 18.7313C118.081 17.4124 120.354 16.7543 123.225 16.7572C124.623 16.7533 126.019 16.8889 127.39 17.1622C128.403 17.3486 129.4 17.6115 130.373 17.9489L129.332 22.6136C128.551 22.2791 127.742 22.0158 126.915 21.8269C125.796 21.575 124.652 21.4555 123.505 21.4709C122.337 21.4709 121.389 21.6692 120.662 22.0657C120.323 22.2319 120.039 22.4937 119.845 22.8193C119.652 23.1449 119.556 23.5202 119.572 23.8992C119.564 24.2748 119.636 24.6477 119.784 24.9929C119.951 25.3435 120.204 25.6463 120.518 25.8734C120.946 26.191 121.406 26.4625 121.891 26.6835C122.571 26.9977 123.267 27.2753 123.976 27.5149C125.156 27.9439 126.311 28.4422 127.433 29.0073C128.295 29.4384 129.086 30 129.779 30.6724C130.38 31.269 130.841 31.993 131.129 32.7915C131.432 33.7115 131.576 34.6772 131.553 35.6462C131.553 38.0254 130.677 39.8262 128.924 41.0485C127.172 42.2708 124.669 42.882 121.415 42.882C119.238 42.882 117.486 42.6994 116.158 42.3341C115.211 42.0911 114.278 41.7972 113.363 41.4536L114.363 36.6546C115.36 37.0513 116.381 37.3852 117.42 37.6545C118.743 37.9885 120.103 38.1483 121.466 38.1299Z" fill="white"/>
<path d="M143.303 10.0948C143.303 11.1757 142.955 12.0306 142.262 12.6659C141.594 13.29 140.712 13.6307 139.8 13.6168C138.872 13.6364 137.973 13.2959 137.288 12.6659C136.592 12.0264 136.246 11.1736 136.246 10.0948C136.246 9.01606 136.592 8.11212 137.288 7.4768C137.973 6.84688 138.872 6.50633 139.8 6.52595C140.712 6.51316 141.593 6.85368 142.262 7.4768C142.956 8.11212 143.303 8.98479 143.303 10.0948ZM142.688 42.2701H136.959V17.3775H142.688V42.2701Z" fill="white"/>
<path d="M149.698 10.809L155.427 9.85815V17.3775H164.237V22.1851H155.431V32.3224C155.431 34.3222 155.747 35.7499 156.378 36.6055C157.008 37.4611 158.082 37.8875 159.598 37.8847C160.533 37.8974 161.465 37.7849 162.369 37.55C163.017 37.379 163.654 37.1726 164.279 36.9317L165.225 41.5005C164.376 41.8494 163.506 42.1435 162.62 42.381C161.387 42.7076 160.116 42.8661 158.841 42.8521C157.071 42.8521 155.595 42.6133 154.411 42.1358C153.302 41.7163 152.328 41.0005 151.595 40.0657C150.868 39.095 150.365 37.9733 150.125 36.7825C149.825 35.3348 149.683 33.8586 149.7 32.38L149.698 10.809Z" fill="white"/>
<path d="M176.178 10.0948C176.178 11.1757 175.83 12.0306 175.136 12.6659C174.468 13.29 173.587 13.6307 172.675 13.6168C171.748 13.6359 170.849 13.2953 170.165 12.6659C169.469 12.0264 169.123 11.1736 169.123 10.0948C169.123 9.01606 169.469 8.11212 170.165 7.4768C170.849 6.84688 171.749 6.50633 172.677 6.52595C173.589 6.51316 174.47 6.85368 175.138 7.4768C175.831 8.11212 176.178 8.98479 176.178 10.0948ZM175.563 42.2701H169.834V17.3775H175.563V42.2701Z" fill="white"/>
<path d="M183.439 40.5069C183.449 40.7901 183.398 41.0722 183.291 41.3344C183.184 41.5965 183.022 41.8326 182.817 42.027C182.405 42.404 181.868 42.6131 181.311 42.6131C180.754 42.6131 180.218 42.404 179.806 42.027C179.603 41.8311 179.444 41.5944 179.339 41.3325C179.234 41.0705 179.185 40.7892 179.195 40.5069C179.186 40.2228 179.235 39.9399 179.341 39.6761C179.446 39.4122 179.604 39.1732 179.806 38.974C180.214 38.5891 180.752 38.3748 181.311 38.3748C181.871 38.3748 182.409 38.5891 182.817 38.974C183.021 39.1716 183.182 39.4101 183.29 39.6742C183.397 39.9382 183.447 40.2219 183.439 40.5069Z" fill="#EE3C24"/>
<path d="M186.118 35.3136C186.111 34.3296 186.272 33.3516 186.596 32.4227C186.892 31.5614 187.356 30.7683 187.962 30.0904C188.564 29.4265 189.301 28.8995 190.122 28.5447C191.029 28.1596 192.006 27.9687 192.991 27.984C194.263 27.9776 195.524 28.2224 196.702 28.7046L196.012 31.3397C195.605 31.1684 195.183 31.035 194.752 30.941C194.26 30.8319 193.757 30.7783 193.254 30.7811C191.998 30.7811 191.043 31.1762 190.389 31.9665C189.736 32.7567 189.408 33.8717 189.407 35.3115C189.407 36.6973 189.717 37.7945 190.336 38.6032C190.956 39.4119 191.999 39.8163 193.466 39.8163C194.009 39.8169 194.552 39.7633 195.085 39.6564C195.556 39.5673 196.018 39.4338 196.464 39.2577L196.916 41.9227C196.403 42.1496 195.863 42.3107 195.31 42.4024C194.58 42.5462 193.838 42.6176 193.095 42.6155C192.039 42.6384 190.988 42.4529 190.003 42.0698C189.173 41.7358 188.429 41.2159 187.828 40.5497C187.24 39.8774 186.802 39.0866 186.543 38.2301C186.253 37.2856 186.11 36.3019 186.118 35.3136Z" fill="#EE3C24"/>
<path d="M211.664 35.2878C211.678 36.3118 211.517 37.3306 211.189 38.3002C210.9 39.1563 210.442 39.9447 209.842 40.6177C209.253 41.2616 208.534 41.7706 207.733 42.11C206.872 42.4732 205.946 42.6547 205.013 42.643C204.084 42.6556 203.163 42.4741 202.307 42.11C201.511 41.7676 200.797 41.2589 200.211 40.6177C199.608 39.9437 199.144 39.1559 198.847 38.3002C198.509 37.3328 198.343 36.3131 198.357 35.2878C198.342 34.2674 198.508 33.2524 198.847 32.2903C199.147 31.4357 199.616 30.651 200.226 29.9835C200.816 29.3458 201.534 28.8414 202.333 28.504C203.182 28.1511 204.094 27.9741 205.013 27.9838C205.936 27.9746 206.851 28.1514 207.705 28.504C208.511 28.8357 209.235 29.3407 209.827 29.9835C210.428 30.6546 210.892 31.4385 211.191 32.2903C211.524 33.2534 211.684 34.2684 211.664 35.2878ZM208.378 35.2878C208.378 33.9021 208.081 32.8048 207.489 31.9961C207.194 31.618 206.817 31.3123 206.387 31.102C205.957 30.8918 205.485 30.7825 205.007 30.7825C204.529 30.7825 204.057 30.8918 203.627 31.102C203.197 31.3123 202.821 31.618 202.526 31.9961C201.935 32.8034 201.638 33.9006 201.637 35.2878C201.635 36.675 201.932 37.7857 202.526 38.62C202.819 39.0014 203.195 39.3102 203.625 39.5227C204.055 39.7352 204.528 39.8457 205.007 39.8457C205.487 39.8457 205.96 39.7352 206.39 39.5227C206.82 39.3102 207.196 39.0014 207.489 38.62C208.081 37.8014 208.378 36.6906 208.378 35.2878Z" fill="#EE3C24"/>
<path d="M222.884 34.9404C222.884 33.485 222.703 32.4325 222.341 31.783C221.979 31.1335 221.302 30.8087 220.31 30.8087C219.92 30.8116 219.53 30.8387 219.144 30.8897C218.719 30.943 218.401 30.9878 218.189 31.0219V42.2701H214.979V28.7812C215.777 28.5654 216.588 28.396 217.406 28.2738C218.455 28.1117 219.514 28.0318 220.576 28.0351C221.374 28.0091 222.171 28.1357 222.922 28.4081C223.492 28.6301 224.011 28.9659 224.448 29.3952C224.685 29.2269 224.933 29.0752 225.191 28.9411C225.517 28.7717 225.854 28.6249 226.2 28.5019C226.586 28.3637 226.98 28.2525 227.38 28.1694C227.794 28.08 228.217 28.035 228.64 28.0351C229.552 28.004 230.46 28.163 231.308 28.5019C231.963 28.7789 232.53 29.23 232.95 29.8067C233.369 30.4137 233.651 31.1058 233.775 31.8342C233.93 32.6916 234.006 33.5616 234 34.433V42.2679H230.79V34.9404C230.79 33.485 230.613 32.4325 230.259 31.783C229.906 31.1335 229.225 30.8087 228.216 30.8087C227.719 30.8062 227.226 30.8921 226.758 31.0624C226.395 31.1837 226.047 31.3491 225.723 31.5549C225.868 32.0148 225.966 32.4884 226.016 32.9684C226.069 33.4997 226.095 34.0333 226.094 34.5673V42.2701H222.884V34.9404Z" fill="#EE3C24"/>
</g>
<defs>
<linearGradient id="paint0_linear" x1="36.0635" y1="52.3776" x2="17.5224" y2="1.67949" gradientUnits="userSpaceOnUse">
<stop stop-color="#ED3424"/>
<stop offset="1" stop-color="#F4A81C"/>
</linearGradient>
<clipPath id="clip0">
<rect width="234" height="54" fill="white"/>
</clipPath>
</defs>
</svg>
