<svg xmlns="http://www.w3.org/2000/svg" width="21.734" height="18.195" viewBox="0 0 21.734 18.195"><defs><style>.a{fill:#362d73;stroke:#362d73;stroke-width:0.2px;}</style></defs><g transform="translate(0.1 -30.508)"><g transform="translate(0 30.608)"><path class="a" d="M21.534,44.046a6.2,6.2,0,0,0-1.091-3.519A6.292,6.292,0,0,0,18.5,38.693a4.683,4.683,0,1,0-7.056-6.084,4.654,4.654,0,0,0-1.356,0,4.683,4.683,0,1,0-7.056,6.084,6.291,6.291,0,0,0-1.941,1.834A6.2,6.2,0,0,0,0,44.046v2.606H4.516V48.6h12.5V46.652h4.516V44.046h0ZM15.283,31.764a3.529,3.529,0,0,1,0,7.058l-.1,0,.007-.022a4.638,4.638,0,0,0,.151-.525l.009-.038c.01-.048.02-.1.029-.146,0-.023.009-.046.012-.069q.011-.065.02-.131c0-.031.008-.061.012-.092s.009-.078.013-.117.006-.08.009-.12,0-.063.006-.095q0-.1.005-.2c0-.005,0-.01,0-.015s0-.005,0-.008c0-.07,0-.139-.005-.208,0-.02,0-.04,0-.06q-.005-.088-.013-.175c0-.013,0-.026,0-.039a4.662,4.662,0,0,0-2.78-3.8A3.539,3.539,0,0,1,15.283,31.764ZM9.546,33.934l.034-.012.106-.036.081-.025.06-.017.108-.028a3.508,3.508,0,0,1,1.665,0l.107.028.061.017.08.025.107.036.033.012a3.54,3.54,0,0,1,2.265,2.761l0,.031c.006.043.012.087.017.13,0,.016,0,.032.005.048,0,.04.007.08.009.12,0,.017,0,.034,0,.052q0,.077,0,.155s0,.009,0,.013,0,0,0,.006c0,.05,0,.1,0,.15,0,.016,0,.031,0,.047q0,.072-.011.143c0,.018,0,.037-.006.055s-.007.061-.012.092-.007.048-.011.071-.012.072-.019.107-.013.063-.02.095l-.013.057q-.017.07-.037.14c-.005.018-.01.037-.016.055s-.017.053-.025.079l-.021.063c-.008.024-.017.048-.025.071q-.022.06-.047.119L14,38.649q-.021.049-.044.1l-.005.011-.017.034q-.026.052-.053.1l-.021.04v0c-.02.036-.041.072-.062.108l-.025.042q-.035.056-.071.111l-.047.067-.04.057-.054.072-.038.048-.059.072-.038.044-.063.071-.039.041q-.052.055-.107.108l-.065.062-.046.042-.077.066-.04.033-.1.075-.026.02a3.521,3.521,0,0,1-4.2,0l-.026-.02-.1-.075L8.5,39.95l-.077-.067-.046-.041-.065-.062q-.055-.053-.107-.108l-.038-.04-.063-.071-.038-.044-.059-.072L7.973,39.4l-.054-.072-.04-.057L7.832,39.2q-.037-.055-.072-.112l-.025-.042c-.022-.036-.043-.072-.063-.109L7.65,38.9c-.018-.034-.036-.069-.053-.1l-.018-.037,0-.006c-.016-.034-.031-.068-.046-.1L7.509,38.6q-.025-.06-.048-.122c-.008-.022-.016-.044-.024-.067l-.023-.069c-.008-.025-.016-.05-.024-.075s-.022-.075-.032-.113-.014-.054-.02-.08l-.015-.063c-.006-.026-.012-.052-.017-.078s-.015-.082-.022-.123c0-.022-.007-.044-.01-.067s-.009-.066-.013-.1c0-.016,0-.033-.006-.049,0-.049-.008-.1-.011-.147,0-.014,0-.028,0-.042,0-.053,0-.106,0-.159s0-.114,0-.17c0-.015,0-.031,0-.046,0-.042.006-.085.01-.126,0-.015,0-.029,0-.044,0-.045.011-.091.017-.136l0-.026A3.54,3.54,0,0,1,9.546,33.934Zm-6.824,1.36a3.527,3.527,0,0,1,6.166-2.342,4.662,4.662,0,0,0-2.781,3.8c0,.011,0,.023,0,.034q-.009.09-.014.181c0,.018,0,.037,0,.056,0,.072-.006.145-.006.218s0,.147.006.221c0,.03,0,.059.006.088s.006.085.01.127.008.075.012.112.008.065.012.1.012.085.019.127c0,.025.009.05.013.075.009.047.018.094.028.141l.011.046a4.63,4.63,0,0,0,.146.509l.011.032-.1,0A3.533,3.533,0,0,1,2.722,35.293Zm2.764,7.371-.037.061c-.026.043-.053.085-.078.129l-.042.073c-.023.04-.045.08-.067.121l-.041.077q-.032.06-.062.121l-.038.077c-.02.043-.04.086-.06.129l-.032.071c-.023.052-.044.1-.065.156l-.019.046q-.04.1-.077.205l-.016.048c-.018.053-.036.106-.053.16-.008.025-.015.049-.022.074-.014.045-.027.091-.039.136l-.022.082q-.017.066-.033.132-.01.042-.019.084c-.01.045-.019.09-.028.134-.005.027-.011.054-.016.081-.009.049-.017.1-.025.147,0,.023-.008.046-.011.069-.011.072-.021.145-.029.217v0q-.011.1-.019.2H1.156v-1.45a5.084,5.084,0,0,1,2.922-4.6,4.664,4.664,0,0,0,2.852.486c.035.05.071.1.108.148l.038.049c.037.047.074.093.112.138l.048.055q.054.062.109.122L7.4,40.5q.051.053.1.1l.039.039q-.075.046-.149.093l-.024.016q-.074.048-.146.1l-.05.035-.128.093-.04.03q-.081.061-.159.124l-.034.028-.124.1-.047.041-.121.11-.031.029q-.074.069-.145.141l-.037.038-.108.113-.042.046q-.06.066-.118.133l-.018.021q-.066.077-.13.157l-.035.045q-.048.061-.095.123l-.036.048c-.041.055-.081.111-.12.168S5.525,42.6,5.486,42.664Zm.187,4.783V46q0-.1,0-.192c0-.021,0-.042,0-.063,0-.043,0-.085.007-.128,0-.026,0-.051.007-.077s.006-.075.011-.112.007-.054.011-.081.009-.071.014-.106.009-.056.014-.084.011-.068.017-.1.012-.057.017-.085.013-.066.02-.1.014-.057.021-.086.015-.064.024-.1.016-.057.024-.086.017-.062.027-.093.018-.057.028-.086.019-.061.03-.091.02-.057.031-.085.022-.06.033-.089.022-.056.034-.084.024-.058.036-.087.025-.055.037-.083.025-.057.039-.085l.04-.082.042-.083.043-.081.044-.081.046-.079.047-.079.049-.078.05-.077.052-.076.053-.075.055-.074.055-.073.057-.072.058-.071.06-.07.061-.069.062-.068.063-.067.065-.066.066-.065.067-.063.069-.063.07-.061.071-.06.072-.059.074-.058.074-.056L7.8,41.86l.076-.053.079-.053.078-.05.082-.051.08-.048.084-.048.082-.045.086-.045.083-.042.066-.032a4.67,4.67,0,0,0,4.344,0l.066.031.084.042.086.045.082.045.083.047.081.048.08.05.079.051.078.053.077.054.075.055.075.056.073.058.072.059.071.06.07.061.068.062.068.064.065.064.066.066.063.066.063.069.06.069.06.071.058.071.058.073.055.073.055.075.052.075.052.076.05.077.049.078.047.079.046.08.044.081.043.081c.014.027.028.055.042.083l.04.082c.013.028.026.056.039.085s.025.055.037.083.024.058.036.086.023.056.034.084.022.059.033.089.021.056.031.085.02.061.03.091.019.057.027.085.018.062.027.093.017.057.024.086.016.064.024.1.014.057.021.086.014.065.02.1.012.057.017.085.012.067.017.1.01.056.014.084.009.07.014.105.008.055.011.082.007.075.011.112.005.051.007.077c0,.042.005.085.007.128,0,.021,0,.042,0,.063q0,.1,0,.192v1.45H5.673ZM17,45.5q-.017-.211-.048-.42c0-.022-.007-.044-.011-.066-.008-.05-.016-.1-.026-.151,0-.026-.01-.053-.016-.079q-.014-.069-.029-.137l-.019-.082q-.016-.067-.033-.133c-.007-.027-.014-.054-.021-.081-.013-.046-.026-.092-.04-.138-.007-.024-.014-.048-.022-.072-.017-.054-.035-.108-.054-.162l-.015-.045q-.037-.1-.077-.206l-.018-.044c-.021-.053-.043-.106-.066-.158l-.031-.069c-.02-.044-.04-.087-.06-.13l-.037-.076q-.03-.062-.062-.123l-.04-.076q-.033-.061-.067-.121l-.041-.072c-.025-.043-.052-.086-.078-.129l-.037-.06q-.059-.094-.122-.186c-.039-.057-.079-.113-.12-.168l-.036-.048q-.047-.063-.1-.124l-.035-.044q-.064-.08-.13-.158l-.018-.02q-.059-.068-.119-.134l-.042-.045-.109-.114-.036-.037q-.072-.072-.145-.141l-.031-.028-.122-.11-.047-.041-.124-.1-.034-.028q-.079-.063-.159-.124l-.041-.03-.127-.092-.051-.035-.145-.1-.025-.017q-.074-.047-.149-.093l.038-.038q.054-.052.106-.106l.058-.06c.038-.04.075-.082.111-.124l.046-.053c.039-.046.076-.093.114-.14l.036-.046c.037-.049.073-.1.108-.149a4.666,4.666,0,0,0,2.852-.486,5.084,5.084,0,0,1,2.922,4.6V45.5Z" transform="translate(0 -30.608)"/></g></g></svg>