<svg width="28" height="28" viewBox="0 0 28 28" fill="none" xmlns="http://www.w3.org/2000/svg">
<path d="M20.5713 9.71432C20.5713 7.89569 19.8489 6.15155 18.5629 4.86559C17.2769 3.57962 15.5328 2.85718 13.7142 2.85718C11.8956 2.85718 10.1514 3.57962 8.86545 4.86559C7.57949 6.15155 6.85704 7.89569 6.85704 9.71432C6.85704 17.7143 3.42847 20 3.42847 20H23.9999C23.9999 20 20.5713 17.7143 20.5713 9.71432Z" stroke="#242120" stroke-width="2" stroke-linecap="round" stroke-linejoin="round"/>
<path d="M15.6913 24.5714C15.4904 24.9178 15.202 25.2053 14.855 25.4052C14.508 25.605 14.1146 25.7102 13.7142 25.7102C13.3138 25.7102 12.9204 25.605 12.5734 25.4052C12.2264 25.2053 11.938 24.9178 11.7371 24.5714" stroke="#242120" stroke-width="2" stroke-linecap="round" stroke-linejoin="round"/>
</svg>
