<svg width="20" height="18" viewBox="0 0 20 18" fill="none" xmlns="http://www.w3.org/2000/svg">
<path d="M17.5 12V6.00005C17.4997 5.737 17.4225 5.47866 17.2763 5.25092C17.13 5.02319 16.9198 4.83407 16.6667 4.70255L10.8333 1.70255C10.58 1.5709 10.2926 1.50159 10 1.50159C9.70744 1.50159 9.42003 1.5709 9.16667 1.70255L3.33333 4.70255C3.08022 4.83407 2.86998 5.02319 2.72372 5.25092C2.57745 5.47866 2.5003 5.737 2.5 6.00005V12C2.5003 12.2631 2.57745 12.5214 2.72372 12.7492C2.86998 12.9769 3.08022 13.166 3.33333 13.2975L9.16667 16.2975C9.42003 16.4292 9.70744 16.4985 10 16.4985C10.2926 16.4985 10.58 16.4292 10.8333 16.2975L16.6667 13.2975C16.9198 13.166 17.13 12.9769 17.2763 12.7492C17.4225 12.5214 17.4997 12.2631 17.5 12Z" stroke="#FF5C00" stroke-width="1.5" stroke-linecap="round" stroke-linejoin="round"/>
<path d="M2.7251 5.21997L10.0001 9.00747L17.2751 5.21997" stroke="#FF5C00" stroke-width="2" stroke-linecap="round" stroke-linejoin="round"/>
<path d="M10 16.56V9" stroke="#FF5C00" stroke-width="1.5" stroke-linecap="round" stroke-linejoin="round"/>
</svg>
