<svg width="20" height="18" viewBox="0 0 20 18" fill="none" xmlns="http://www.w3.org/2000/svg">
<path d="M13.3335 3H15.0002C15.4422 3 15.8661 3.15804 16.1787 3.43934C16.4912 3.72064 16.6668 4.10218 16.6668 4.5V15C16.6668 15.3978 16.4912 15.7794 16.1787 16.0607C15.8661 16.342 15.4422 16.5 15.0002 16.5H5.00016C4.55814 16.5 4.13421 16.342 3.82165 16.0607C3.50909 15.7794 3.3335 15.3978 3.3335 15V4.5C3.3335 4.10218 3.50909 3.72064 3.82165 3.43934C4.13421 3.15804 4.55814 3 5.00016 3H6.66683" stroke="#FF5C00" stroke-width="1.5" stroke-linecap="round" stroke-linejoin="round"/>
<path d="M12.4998 1.5H7.49984C7.0396 1.5 6.6665 1.83579 6.6665 2.25V3.75C6.6665 4.16421 7.0396 4.5 7.49984 4.5H12.4998C12.9601 4.5 13.3332 4.16421 13.3332 3.75V2.25C13.3332 1.83579 12.9601 1.5 12.4998 1.5Z" stroke="#FF5C00" stroke-width="1.5" stroke-linecap="round" stroke-linejoin="round"/>
</svg>
