<svg width="15" height="15" viewBox="0 0 15 15" fill="none" xmlns="http://www.w3.org/2000/svg">
<path d="M10.9131 1.31132C11.0882 1.13622 11.2961 0.997328 11.5248 0.902567C11.7536 0.807806 11.9988 0.759033 12.2464 0.759033C12.494 0.759033 12.7392 0.807806 12.968 0.902567C13.1968 0.997328 13.4047 1.13622 13.5798 1.31132C13.7548 1.48641 13.8937 1.69428 13.9885 1.92306C14.0833 2.15183 14.132 2.39703 14.132 2.64465C14.132 2.89227 14.0833 3.13747 13.9885 3.36625C13.8937 3.59502 13.7548 3.80289 13.5798 3.97798L4.57975 12.978L0.913086 13.978L1.91309 10.3113L10.9131 1.31132Z" stroke="#FF5C00" stroke-width="1.5" stroke-linecap="round" stroke-linejoin="round"/>
</svg>
