<svg width="20" height="18" viewBox="0 0 20 18" fill="none" xmlns="http://www.w3.org/2000/svg">
<path d="M17.5 8.62502C17.5029 9.61492 17.2459 10.5914 16.75 11.475C16.162 12.5338 15.2581 13.4244 14.1395 14.047C13.021 14.6696 11.7319 14.9996 10.4167 15C9.31678 15.0026 8.23176 14.7713 7.25 14.325L2.5 15.75L4.08333 11.475C3.58744 10.5914 3.33047 9.61492 3.33333 8.62502C3.33384 7.44134 3.70051 6.28116 4.39227 5.27443C5.08402 4.26771 6.07355 3.4542 7.25 2.92502C8.23176 2.47872 9.31678 2.24744 10.4167 2.25002H10.8333C12.5703 2.33627 14.2109 2.99609 15.4409 4.10317C16.671 5.21024 17.4042 6.68676 17.5 8.25002V8.62502Z" stroke="#FF5C00" stroke-width="1.5" stroke-linecap="round" stroke-linejoin="round"/>
</svg>
