<svg width="20" height="18" viewBox="0 0 20 18" fill="none" xmlns="http://www.w3.org/2000/svg">
<path d="M12.2501 4.72505C12.0974 4.86524 12.0119 5.05373 12.0119 5.25005C12.0119 5.44636 12.0974 5.63485 12.2501 5.77505L13.5835 6.97505C13.7392 7.11247 13.9487 7.18944 14.1668 7.18944C14.3849 7.18944 14.5943 7.11247 14.7501 6.97505L17.8918 4.14755C18.3108 4.98094 18.4377 5.90947 18.2555 6.80941C18.0733 7.70934 17.5907 8.53793 16.872 9.18476C16.1533 9.83158 15.2327 10.2659 14.2327 10.4299C13.2328 10.5939 12.2011 10.4797 11.2751 10.1025L5.51679 15.285C5.18527 15.5834 4.73563 15.751 4.26679 15.751C3.79795 15.751 3.34831 15.5834 3.01679 15.285C2.68527 14.9867 2.49902 14.582 2.49902 14.16C2.49902 13.7381 2.68527 13.3334 3.01679 13.035L8.77512 7.85255C8.35609 7.01915 8.22922 6.09062 8.41141 5.19069C8.5936 4.29075 9.0762 3.46216 9.79489 2.81534C10.5136 2.16851 11.4342 1.73417 12.4342 1.5702C13.4341 1.40623 14.4658 1.52042 15.3918 1.89755L12.2585 4.71755L12.2501 4.72505Z" stroke="#FF5C00" stroke-width="1.5" stroke-linecap="round" stroke-linejoin="round"/>
</svg>
