<svg width="20" height="18" viewBox="0 0 20 18" fill="none" xmlns="http://www.w3.org/2000/svg">
<path d="M14.1668 15.75V14.25C14.1668 13.4544 13.8156 12.6913 13.1905 12.1287C12.5654 11.5661 11.7176 11.25 10.8335 11.25H4.16683C3.28277 11.25 2.43493 11.5661 1.80981 12.1287C1.18469 12.6913 0.833496 13.4544 0.833496 14.25V15.75" stroke="#FF5C00" stroke-width="1.5" stroke-linecap="round" stroke-linejoin="round"/>
<path d="M7.49984 8.25C9.34079 8.25 10.8332 6.90685 10.8332 5.25C10.8332 3.59315 9.34079 2.25 7.49984 2.25C5.65889 2.25 4.1665 3.59315 4.1665 5.25C4.1665 6.90685 5.65889 8.25 7.49984 8.25Z" stroke="#FF5C00" stroke-width="1.5" stroke-linecap="round" stroke-linejoin="round"/>
<path d="M19.1665 15.75V14.25C19.166 13.5853 18.9201 12.9396 18.4676 12.4143C18.0152 11.8889 17.3816 11.5137 16.6665 11.3475" stroke="#FF5C00" stroke-width="1.5" stroke-linecap="round" stroke-linejoin="round"/>
<path d="M13.3335 2.34753C14.0505 2.51276 14.686 2.88806 15.1399 3.41427C15.5937 3.94047 15.84 4.58766 15.84 5.25378C15.84 5.91991 15.5937 6.56709 15.1399 7.0933C14.686 7.61951 14.0505 7.99481 13.3335 8.16003" stroke="#FF5C00" stroke-width="1.5" stroke-linecap="round" stroke-linejoin="round"/>
</svg>
